<svg width="32" height="33" viewBox="0 0 32 33" fill="none" xmlns="http://www.w3.org/2000/svg">
<path d="M17.0276 17.8251C19.1473 17.8251 20.8657 16.26 20.8657 14.3294C20.8657 14.1009 20.8416 13.8774 20.7956 13.6611H13.2595C13.2135 13.8774 13.1895 14.1009 13.1895 14.3294C13.1895 16.26 14.9078 17.8251 17.0276 17.8251Z" fill="#1D4ED8"/>
<path d="M21.3302 13.1993H12.7974C12.7974 13.1993 12.2285 13.1993 12.2285 12.676C12.2285 12.1526 12.7974 12.1526 12.7974 12.1526C12.7974 10.756 13.5129 9.50064 14.6083 8.73676C14.8263 8.58474 15.1175 8.70677 15.1931 8.96157L15.7922 10.9831C15.8041 11.0233 15.8411 11.0508 15.883 11.0508C15.9373 11.0508 15.9805 11.0052 15.9775 10.951L15.8408 8.47818C15.8301 8.28459 15.9529 8.10664 16.1423 8.06516C16.4391 8.00017 16.7474 7.96582 17.0638 7.96582C17.3583 7.96582 17.6457 7.99557 17.9234 8.05208C18.1155 8.09118 18.2411 8.27057 18.2303 8.4663L18.0933 10.9511C18.0903 11.0052 18.1334 11.0508 18.1877 11.0508C18.2296 11.0508 18.2665 11.0232 18.2784 10.983L18.883 8.9273C18.9574 8.67435 19.2448 8.55104 19.4634 8.69844C20.5903 9.45824 21.3302 10.7324 21.3302 12.1526C21.3302 12.1526 21.8422 12.1526 21.8422 12.676C21.8422 13.1993 21.3302 13.1993 21.3302 13.1993Z" fill="#1D4ED8"/>
<path d="M17.0416 20.2471C15.8798 21.4754 15.215 23.0104 15.1523 24.6094V32.0158H21.345V24.7984C21.3601 24.4144 21.5198 24.0458 21.7988 23.7508C22.0778 23.4558 22.4602 23.2513 22.8857 23.1695C23.3112 23.0878 23.7554 23.1335 24.1481 23.2995C24.5408 23.4654 24.8597 23.7421 25.0543 24.0858C25.2489 24.4296 25.3081 24.8207 25.2226 25.1975C25.1371 25.5742 24.9118 25.9151 24.5822 26.1662C24.2526 26.4173 23.8376 26.5643 23.4028 26.5841C22.9679 26.6038 22.538 26.495 22.181 26.275V31.9859C22.6881 32.048 23.2035 32.0682 23.7206 32.0447C25.5313 31.9627 27.2594 31.3504 28.6318 30.3048C30.0041 29.2592 30.9424 27.8398 31.2984 26.271C31.6544 24.7023 31.4078 23.0735 30.5975 21.6422C29.7872 20.2109 28.4595 19.0588 26.8242 18.3678C25.1888 17.6768 23.3392 17.4865 21.5676 17.8268C19.796 18.1672 18.2034 19.0188 17.0416 20.2471Z" fill="#1D4ED8"/>
<path d="M14.2991 24.2282C14.2991 24.3232 14.3011 24.4178 14.3053 24.5119C11.6456 23.7715 9.57472 21.8599 8.86914 19.4624C10.0858 18.3984 11.6804 17.6704 13.4593 17.4492L16.9799 18.8936C15.3333 20.2103 14.2991 22.1126 14.2991 24.2282Z" fill="#1D4ED8"/>
<path d="M1.65414 20.5833C2.74427 24.2847 5.13078 27.469 8.37635 29.5528C10.1932 30.7193 12.2112 31.4972 14.3054 31.8593V26.0693C13.2953 25.7937 12.3249 25.3648 11.4299 24.7902C9.32881 23.4412 7.78386 21.3797 7.07814 18.9836C6.37242 16.5874 6.5532 14.017 7.58735 11.7433C8.6215 9.4697 10.4398 7.64511 12.7089 6.60393C14.9781 5.56275 17.5462 5.3747 19.9427 6.07425C22.0264 6.68252 24.0321 7.75794 25.3649 9.45192L28.6325 4.96413C26.6969 2.93592 24.2505 1.4373 21.5262 0.642048C17.8243 -0.438558 13.8573 -0.148082 10.3521 1.46025C6.84687 3.06858 4.03818 5.88704 2.44071 9.39917C0.843251 12.9113 0.564001 16.8819 1.65414 20.5833Z" fill="#1D4ED8"/>
</svg>
