<svg width="142" height="33" viewBox="0 0 142 33" fill="none" xmlns="http://www.w3.org/2000/svg">
<path d="M17.0276 17.8251C19.1473 17.8251 20.8657 16.26 20.8657 14.3294C20.8657 14.1009 20.8416 13.8774 20.7956 13.6611H13.2595C13.2135 13.8774 13.1895 14.1009 13.1895 14.3294C13.1895 16.26 14.9078 17.8251 17.0276 17.8251Z" fill="#1D4ED8"/>
<path d="M21.3302 13.1993H12.7974C12.7974 13.1993 12.2285 13.1993 12.2285 12.676C12.2285 12.1526 12.7974 12.1526 12.7974 12.1526C12.7974 10.756 13.5129 9.50064 14.6083 8.73676C14.8263 8.58474 15.1175 8.70677 15.1931 8.96157L15.7922 10.9831C15.8041 11.0233 15.8411 11.0508 15.883 11.0508C15.9373 11.0508 15.9805 11.0052 15.9775 10.951L15.8408 8.47818C15.8301 8.28459 15.9529 8.10664 16.1423 8.06516C16.4391 8.00017 16.7474 7.96582 17.0638 7.96582C17.3583 7.96582 17.6457 7.99557 17.9234 8.05208C18.1155 8.09118 18.2411 8.27057 18.2303 8.4663L18.0933 10.9511C18.0903 11.0052 18.1334 11.0508 18.1877 11.0508C18.2296 11.0508 18.2665 11.0232 18.2784 10.983L18.883 8.9273C18.9574 8.67435 19.2448 8.55104 19.4634 8.69844C20.5903 9.45824 21.3302 10.7324 21.3302 12.1526C21.3302 12.1526 21.8422 12.1526 21.8422 12.676C21.8422 13.1993 21.3302 13.1993 21.3302 13.1993Z" fill="#1D4ED8"/>
<path d="M17.0416 20.2471C15.8798 21.4754 15.215 23.0104 15.1523 24.6094V32.0158H21.345V24.7984C21.3601 24.4144 21.5198 24.0458 21.7988 23.7508C22.0778 23.4558 22.4602 23.2513 22.8857 23.1695C23.3112 23.0878 23.7554 23.1335 24.1481 23.2995C24.5408 23.4654 24.8597 23.7421 25.0543 24.0858C25.2489 24.4296 25.3081 24.8207 25.2226 25.1975C25.1371 25.5742 24.9118 25.9151 24.5822 26.1662C24.2526 26.4173 23.8376 26.5643 23.4028 26.5841C22.9679 26.6038 22.538 26.495 22.181 26.275V31.9859C22.6881 32.048 23.2035 32.0682 23.7206 32.0447C25.5313 31.9627 27.2594 31.3504 28.6318 30.3048C30.0041 29.2592 30.9424 27.8398 31.2984 26.271C31.6544 24.7023 31.4078 23.0735 30.5975 21.6422C29.7872 20.2109 28.4595 19.0588 26.8242 18.3678C25.1888 17.6768 23.3392 17.4865 21.5676 17.8268C19.796 18.1672 18.2034 19.0188 17.0416 20.2471Z" fill="#1D4ED8"/>
<path d="M14.2991 24.2282C14.2991 24.3232 14.3011 24.4178 14.3053 24.5119C11.6456 23.7715 9.57472 21.8599 8.86914 19.4624C10.0858 18.3984 11.6804 17.6704 13.4593 17.4492L16.9799 18.8936C15.3333 20.2103 14.2991 22.1126 14.2991 24.2282Z" fill="#1D4ED8"/>
<path d="M1.65414 20.5833C2.74427 24.2847 5.13078 27.469 8.37635 29.5528C10.1932 30.7193 12.2112 31.4972 14.3054 31.8593V26.0693C13.2953 25.7937 12.3249 25.3648 11.4299 24.7902C9.32881 23.4412 7.78386 21.3797 7.07814 18.9836C6.37242 16.5874 6.5532 14.017 7.58735 11.7433C8.6215 9.4697 10.4398 7.64511 12.7089 6.60393C14.9781 5.56275 17.5462 5.3747 19.9427 6.07425C22.0264 6.68252 24.0321 7.75794 25.3649 9.45192L28.6325 4.96413C26.6969 2.93592 24.2505 1.4373 21.5262 0.642048C17.8243 -0.438558 13.8573 -0.148082 10.3521 1.46025C6.84687 3.06858 4.03818 5.88704 2.44071 9.39917C0.843251 12.9113 0.564001 16.8819 1.65414 20.5833Z" fill="#1D4ED8"/>
<path d="M45.507 24.5C43.1896 24.5 41.3591 23.7407 40.0155 22.2221C38.6718 20.696 38 18.6239 38 16.0056C38 13.3724 38.668 11.2965 40.0041 9.77789C41.3478 8.2593 43.1783 7.5 45.4957 7.5C47.3526 7.5 48.9265 8.04235 50.2173 9.12706C51.5081 10.2043 52.2403 11.5882 52.4139 13.2789H49.5379C49.3341 12.3064 48.8661 11.5321 48.1339 10.9561C47.4017 10.3726 46.5223 10.0809 45.4957 10.0809C44.1068 10.0809 43.0085 10.612 42.2008 11.6743C41.3931 12.729 40.9892 14.1691 40.9892 15.9944C40.9892 17.8197 41.3931 19.2635 42.2008 20.3257C43.0085 21.388 44.1105 21.9191 45.507 21.9191C46.5412 21.9191 47.4244 21.6536 48.1566 21.1224C48.8888 20.5838 49.353 19.8619 49.5493 18.9568H52.4253C52.229 20.6175 51.4968 21.9565 50.2286 22.9739C48.9605 23.9913 47.3866 24.5 45.507 24.5Z" fill="#232033"/>
<path d="M60.9151 10.3053V15.7251H64.2893C65.2178 15.7251 65.9349 15.4894 66.4406 15.0182C66.9539 14.5469 67.2106 13.8811 67.2106 13.0208C67.2106 12.1755 66.9426 11.5134 66.4067 11.0347C65.8783 10.5484 65.1498 10.3053 64.2214 10.3053H60.9151ZM60.9151 18.0254V24.096H57.9938V7.90396H64.629C66.3425 7.90396 67.7012 8.36029 68.7052 9.27294C69.7091 10.1781 70.2111 11.4087 70.2111 12.9647C70.2111 14.0419 69.9394 14.9957 69.3959 15.8261C68.8524 16.649 68.0975 17.2325 67.1313 17.5766L70.698 24.096H67.3578L64.1534 18.0254H60.9151Z" fill="#232033"/>
<path d="M86.6496 21.5937V24.096H76.0741V7.90396H86.6496V10.4063H78.9954V14.704H86.2306V17.0604H78.9954V21.5937H86.6496Z" fill="#232033"/>
<path d="M102.012 12.6281L98.7061 24.096H95.9547L91.5727 7.90396H94.6186L97.4153 19.9554H97.5852L100.801 7.90396H103.394L106.655 19.9554H106.813L109.61 7.90396H112.633L108.251 24.096H105.511L102.182 12.6281H102.012Z" fill="#232033"/>
<path d="M120.885 24.096H117.964V7.90396H120.885V24.096Z" fill="#232033"/>
<path d="M134.289 7.5C136.659 7.5 138.535 8.26304 139.917 9.78911C141.306 11.3152 142 13.3836 142 15.9944C142 18.6052 141.309 20.6773 139.928 22.2109C138.547 23.737 136.667 24.5 134.289 24.5C131.896 24.5 130.005 23.737 128.616 22.2109C127.235 20.6848 126.544 18.6127 126.544 15.9944C126.544 13.3836 127.239 11.3152 128.628 9.78911C128.802 9.59897 128.983 9.42068 129.173 9.25424C130.502 8.08475 132.208 7.5 134.289 7.5ZM134.289 10.0696C132.982 10.0696 131.915 10.5 131.088 11.3608C130.993 11.4596 130.902 11.5641 130.813 11.6743C129.96 12.744 129.534 14.184 129.534 15.9944C129.534 17.8122 129.956 19.256 130.802 20.3257C131.655 21.3955 132.817 21.9304 134.289 21.9304C135.738 21.9304 136.886 21.3955 137.731 20.3257C138.584 19.2485 139.011 17.8047 139.011 15.9944C139.011 14.184 138.584 12.744 137.731 11.6743C136.886 10.6045 135.738 10.0696 134.289 10.0696Z" fill="#232033"/>
</svg>
